<?xml version="1.0" encoding="UTF-8" standalone="no"?>
<!DOCTYPE svg PUBLIC "-//W3C//DTD SVG 1.1//EN" "http://www.w3.org/Graphics/SVG/1.1/DTD/svg11.dtd">
<svg width="100%" height="100%" viewBox="0 0 240 107" version="1.1" xmlns="http://www.w3.org/2000/svg" xmlns:xlink="http://www.w3.org/1999/xlink" xml:space="preserve" xmlns:serif="http://www.serif.com/" style="fill-rule:evenodd;clip-rule:evenodd;stroke-linecap:round;stroke-linejoin:round;stroke-miterlimit:1.5;">
    <g transform="matrix(0.997371,-0.0724623,0.0724623,0.997371,-75.9497,-192.564)">
        <g transform="matrix(0.699115,0,0,1,-32.678,-43.6455)">
            <path d="M128.274,319.646C130.137,322.859 153.516,319.179 157.148,320.813C168.333,325.847 173.619,308.753 183.176,306.993C184.314,306.784 192.302,318.633 199.774,316.77C209.094,314.446 213.019,294.403 218.053,287.616C218.937,286.424 222.793,278.661 224.102,278.926C226.603,279.434 228.14,288.382 228.929,290.526C231.818,298.385 238.772,334.772 248.762,332.533C251.693,331.876 251.324,323.784 252.302,321.48C257.018,310.371 260.329,299.268 263.591,287.704C264.966,282.832 268.55,269.504 273.936,267.752C278.407,266.298 278.235,275.74 283.765,270.657C289.838,265.074 293.243,253.72 301.809,250.863C310.149,248.082 314.944,272.772 316.384,277.801C316.954,279.794 320.834,289.3 320.834,288.876M320.404,287.026C320.404,286.287 322.35,291.875 323.005,293.316C325.116,297.959 327.018,302.849 328.414,307.758C331.232,317.664 337.6,356.207 348.589,357.678C350.257,357.901 351.772,351.429 352.634,350.117C356.939,343.562 359.711,331.634 367.482,328.032C379.607,322.413 387.044,340.291 405.284,334.976" style="fill:none;stroke:rgb(0,18,25);stroke-width:2.09px;"/>
        </g>
        <g transform="matrix(0.736972,0,0,0.728713,-31.242,51.3514)">
            <path d="M128.274,319.646C130.137,322.859 153.516,319.179 157.148,320.813C168.333,325.847 173.619,308.753 183.176,306.993C184.314,306.784 192.302,318.633 199.774,316.77C209.094,314.446 213.019,294.403 218.053,287.616C218.937,286.424 222.793,278.661 224.102,278.926C226.603,279.434 228.14,288.382 228.929,290.526C231.818,298.385 238.772,334.772 248.762,332.533C251.693,331.876 251.324,323.784 252.302,321.48C257.018,310.371 260.329,299.268 263.591,287.704C264.966,282.832 268.55,269.504 273.936,267.752C278.407,266.298 278.235,275.74 283.765,270.657C289.838,265.074 293.243,253.72 301.809,250.863C310.149,248.082 314.944,272.772 316.384,277.801C316.954,279.794 320.834,289.3 320.834,288.876M320.404,287.026C320.404,286.287 322.35,291.875 323.005,293.316C325.116,297.959 327.018,302.849 328.414,307.758C331.232,317.664 337.6,356.207 348.589,357.678C350.257,357.901 351.772,351.429 352.634,350.117C356.939,343.562 359.711,331.634 367.482,328.032C379.607,322.413 387.044,340.291 405.284,334.976" style="fill:none;stroke:rgb(10,147,150);stroke-width:2.46px;"/>
        </g>
        <g transform="matrix(0.736972,0,0,0.336329,-4.68285,185.701)">
            <path d="M128.274,319.646C130.137,322.859 153.516,319.179 157.148,320.813C168.333,325.847 173.619,308.753 183.176,306.993C184.314,306.784 192.302,318.633 199.774,316.77C209.094,314.446 213.019,294.403 218.053,287.616C218.937,286.424 222.793,278.661 224.102,278.926C226.603,279.434 228.14,288.382 228.929,290.526C231.818,298.385 238.772,334.772 248.762,332.533C251.693,331.876 251.324,323.784 252.302,321.48C257.018,310.371 260.329,299.268 263.591,287.704C264.966,282.832 268.55,269.504 273.936,267.752C278.407,266.298 278.235,275.74 283.765,270.657C289.838,265.074 293.243,253.72 301.809,250.863C310.149,248.082 314.944,272.772 316.384,277.801C316.954,279.794 320.834,289.3 320.834,288.876M320.404,287.026C320.404,286.287 322.35,291.875 323.005,293.316C325.116,297.959 327.018,302.849 328.414,307.758C331.232,317.664 337.6,356.207 348.589,357.678C350.257,357.901 351.772,351.429 352.634,350.117C356.939,343.562 359.711,331.634 367.482,328.032C379.607,322.413 387.044,340.291 405.284,334.976" style="fill:none;stroke:rgb(148,210,189);stroke-width:3.14px;"/>
        </g>
    </g>
</svg>
