<?xml version="1.0" encoding="UTF-8" standalone="no"?>
<!DOCTYPE svg PUBLIC "-//W3C//DTD SVG 1.1//EN" "http://www.w3.org/Graphics/SVG/1.1/DTD/svg11.dtd">
<svg width="100%" height="100%" viewBox="0 0 960 116" version="1.1" xmlns="http://www.w3.org/2000/svg" xmlns:xlink="http://www.w3.org/1999/xlink" xml:space="preserve" xmlns:serif="http://www.serif.com/" style="fill-rule:evenodd;clip-rule:evenodd;stroke-linejoin:round;stroke-miterlimit:2;">
    <g transform="matrix(1,0,0,1,0,-285.113)">
        <path d="M0,290L17.8,293.2C35.7,296.3 71.3,302.7 106.8,306C142.3,309.3 177.7,309.7 213.2,305.5C248.7,301.3 284.3,292.7 320,292.5C355.7,292.3 391.3,300.7 426.8,299.8C462.3,299 497.7,289 533.2,286.5C568.7,284 604.3,289 640,293C675.7,297 711.3,300 746.8,297.7C782.3,295.3 817.7,287.7 853.2,285.7C888.7,283.7 924.3,287.3 942.2,289.2L960,291L960,401L0,401L0,290Z" style="fill:rgb(233,216,166);fill-rule:nonzero;"/>
    </g>
    <g transform="matrix(1,0,0,1,0,-285.113)">
        <path d="M0,311L17.8,313.8C35.7,316.7 71.3,322.3 106.8,323.5C142.3,324.7 177.7,321.3 213.2,318.5C248.7,315.7 284.3,313.3 320,312.8C355.7,312.3 391.3,313.7 426.8,315C462.3,316.3 497.7,317.7 533.2,319.5C568.7,321.3 604.3,323.7 640,320.7C675.7,317.7 711.3,309.3 746.8,306.8C782.3,304.3 817.7,307.7 853.2,309.7C888.7,311.7 924.3,312.3 942.2,312.7L960,313L960,401L0,401L0,311Z" style="fill:rgb(148,210,189);fill-rule:nonzero;"/>
    </g>
    <g transform="matrix(1,0,0,1,0,-285.113)">
        <path d="M0,337L17.8,338.2C35.7,339.3 71.3,341.7 106.8,342.8C142.3,344 177.7,344 213.2,343.8C248.7,343.7 284.3,343.3 320,341C355.7,338.7 391.3,334.3 426.8,332C462.3,329.7 497.7,329.3 533.2,332.3C568.7,335.3 604.3,341.7 640,344.5C675.7,347.3 711.3,346.7 746.8,344.2C782.3,341.7 817.7,337.3 853.2,337.3C888.7,337.3 924.3,341.7 942.2,343.8L960,346L960,401L0,401L0,337Z" style="fill:rgb(10,147,150);fill-rule:nonzero;"/>
    </g>
    <g transform="matrix(1,0,0,1,0,-285.113)">
        <path d="M0,347L17.8,347.7C35.7,348.3 71.3,349.7 106.8,349.8C142.3,350 177.7,349 213.2,351.2C248.7,353.3 284.3,358.7 320,358.2C355.7,357.7 391.3,351.3 426.8,348.3C462.3,345.3 497.7,345.7 533.2,346.5C568.7,347.3 604.3,348.7 640,351.5C675.7,354.3 711.3,358.7 746.8,359.2C782.3,359.7 817.7,356.3 853.2,354.7C888.7,353 924.3,353 942.2,353L960,353L960,401L0,401L0,347Z" style="fill:rgb(0,95,115);fill-rule:nonzero;"/>
    </g>
    <g transform="matrix(1,0,0,1,0,-285.113)">
        <path d="M0,366L17.8,368.5C35.7,371 71.3,376 106.8,376.2C142.3,376.3 177.7,371.7 213.2,370.8C248.7,370 284.3,373 320,374.5C355.7,376 391.3,376 426.8,376.8C462.3,377.7 497.7,379.3 533.2,381.2C568.7,383 604.3,385 640,383.8C675.7,382.7 711.3,378.3 746.8,376.3C782.3,374.3 817.7,374.7 853.2,373.7C888.7,372.7 924.3,370.3 942.2,369.2L960,368L960,417L0,417L0,366Z" style="fill:rgb(0,18,25);fill-rule:nonzero;"/>
    </g>
</svg>
