<?xml version="1.0" encoding="UTF-8" standalone="no"?>
<!DOCTYPE svg PUBLIC "-//W3C//DTD SVG 1.1//EN" "http://www.w3.org/Graphics/SVG/1.1/DTD/svg11.dtd">
<svg width="100%" height="100%" viewBox="0 0 247 126" version="1.1" xmlns="http://www.w3.org/2000/svg" xmlns:xlink="http://www.w3.org/1999/xlink" xml:space="preserve" xmlns:serif="http://www.serif.com/" style="fill-rule:evenodd;clip-rule:evenodd;stroke-linecap:round;stroke-linejoin:round;stroke-miterlimit:1.5;">
    <g transform="matrix(1.06061,0,0,1.06061,-113.695,-50.0591)">
        <rect x="108" y="48" width="36" height="36" style="fill:none;stroke:rgb(0,18,25);stroke-width:1.6px;"/>
        <g transform="matrix(1,0,0,1,0,36)">
            <rect x="108" y="48" width="36" height="36" style="fill:none;stroke:rgb(0,18,25);stroke-width:1.6px;"/>
        </g>
        <g transform="matrix(1,0,0,1,0,72)">
            <rect x="108" y="48" width="36" height="36" style="fill:none;stroke:rgb(0,18,25);stroke-width:1.6px;"/>
        </g>
        <g transform="matrix(1,0,0,1,36,0)">
            <rect x="108" y="48" width="36" height="36" style="fill:none;stroke:rgb(0,18,25);stroke-width:1.6px;"/>
        </g>
        <g transform="matrix(1,0,0,1,36,36)">
            <rect x="108" y="48" width="36" height="36" style="fill:none;stroke:rgb(0,18,25);stroke-width:1.6px;"/>
        </g>
        <g transform="matrix(1,0,0,1,36,72)">
            <rect x="108" y="48" width="36" height="36" style="fill:none;stroke:rgb(0,18,25);stroke-width:1.6px;"/>
        </g>
        <g transform="matrix(1,0,0,1,72,0)">
            <rect x="108" y="48" width="36" height="36" style="fill:none;stroke:rgb(0,18,25);stroke-width:1.6px;"/>
        </g>
        <g transform="matrix(1,0,0,1,72,36)">
            <rect x="108" y="48" width="36" height="36" style="fill:none;stroke:rgb(0,18,25);stroke-width:1.6px;"/>
        </g>
        <g transform="matrix(1,0,0,1,72,72)">
            <rect x="108" y="48" width="36" height="36" style="fill:none;stroke:rgb(0,18,25);stroke-width:1.6px;"/>
        </g>
    </g>
    <g transform="matrix(1.06061,0,0,1.06061,-48.4682,-40.5136)">
        <rect x="108" y="48" width="36" height="36" style="fill:none;stroke:rgb(10,147,150);stroke-width:1.6px;"/>
        <g transform="matrix(1,0,0,1,0,36)">
            <rect x="108" y="48" width="36" height="36" style="fill:none;stroke:rgb(10,147,150);stroke-width:1.6px;"/>
        </g>
        <g transform="matrix(1,0,0,1,0,72)">
            <rect x="108" y="48" width="36" height="36" style="fill:none;stroke:rgb(10,147,150);stroke-width:1.6px;"/>
        </g>
        <g transform="matrix(1,0,0,1,36,0)">
            <rect x="108" y="48" width="36" height="36" style="fill:none;stroke:rgb(10,147,150);stroke-width:1.6px;"/>
        </g>
        <g transform="matrix(1,0,0,1,36,36)">
            <rect x="108" y="48" width="36" height="36" style="fill:none;stroke:rgb(10,147,150);stroke-width:1.6px;"/>
        </g>
        <g transform="matrix(1,0,0,1,36,72)">
            <rect x="108" y="48" width="36" height="36" style="fill:none;stroke:rgb(10,147,150);stroke-width:1.6px;"/>
        </g>
        <g transform="matrix(1,0,0,1,72,0)">
            <rect x="108" y="48" width="36" height="36" style="fill:none;stroke:rgb(10,147,150);stroke-width:1.6px;"/>
        </g>
        <g transform="matrix(1,0,0,1,72,36)">
            <rect x="108" y="48" width="36" height="36" style="fill:none;stroke:rgb(10,147,150);stroke-width:1.6px;"/>
        </g>
        <g transform="matrix(1,0,0,1,72,72)">
            <rect x="108" y="48" width="36" height="36" style="fill:none;stroke:rgb(10,147,150);stroke-width:1.6px;"/>
        </g>
    </g>
    <g transform="matrix(1.06061,0,0,1.06061,16.7591,-50.0591)">
        <rect x="108" y="48" width="36" height="36" style="fill:none;stroke:rgb(148,210,189);stroke-width:1.6px;"/>
        <g transform="matrix(1,0,0,1,0,36)">
            <rect x="108" y="48" width="36" height="36" style="fill:none;stroke:rgb(148,210,189);stroke-width:1.6px;"/>
        </g>
        <g transform="matrix(1,0,0,1,0,72)">
            <rect x="108" y="48" width="36" height="36" style="fill:none;stroke:rgb(148,210,189);stroke-width:1.6px;"/>
        </g>
        <g transform="matrix(1,0,0,1,36,0)">
            <rect x="108" y="48" width="36" height="36" style="fill:none;stroke:rgb(148,210,189);stroke-width:1.6px;"/>
        </g>
        <g transform="matrix(1,0,0,1,36,36)">
            <rect x="108" y="48" width="36" height="36" style="fill:none;stroke:rgb(148,210,189);stroke-width:1.6px;"/>
        </g>
        <g transform="matrix(1,0,0,1,36,72)">
            <rect x="108" y="48" width="36" height="36" style="fill:none;stroke:rgb(148,210,189);stroke-width:1.6px;"/>
        </g>
        <g transform="matrix(1,0,0,1,72,0)">
            <rect x="108" y="48" width="36" height="36" style="fill:none;stroke:rgb(148,210,189);stroke-width:1.6px;"/>
        </g>
        <g transform="matrix(1,0,0,1,72,36)">
            <rect x="108" y="48" width="36" height="36" style="fill:none;stroke:rgb(148,210,189);stroke-width:1.6px;"/>
        </g>
        <g transform="matrix(1,0,0,1,72,72)">
            <rect x="108" y="48" width="36" height="36" style="fill:none;stroke:rgb(148,210,189);stroke-width:1.6px;"/>
        </g>
    </g>
</svg>
