<?xml version="1.0" encoding="UTF-8" standalone="no"?>
<!DOCTYPE svg PUBLIC "-//W3C//DTD SVG 1.1//EN" "http://www.w3.org/Graphics/SVG/1.1/DTD/svg11.dtd">
<svg width="100%" height="100%" viewBox="0 0 400 405" version="1.1" xmlns="http://www.w3.org/2000/svg" xmlns:xlink="http://www.w3.org/1999/xlink" xml:space="preserve" xmlns:serif="http://www.serif.com/" style="fill-rule:evenodd;clip-rule:evenodd;stroke-linecap:square;stroke-miterlimit:1.5;">
    <g transform="matrix(0.597009,0,0,0.597009,-44.0783,8.21743)">
        <g transform="matrix(1,0,0,1,-1.16458,-36.4242)">
            <g transform="matrix(1,0,0,1,-150.342,-46.5656)">
                <path d="M350.177,98.841L387.839,98.841C390.093,171.537 399.253,240.006 417.604,302.851C449.951,378.357 445.954,419.137 417.177,420C377.15,422.362 354.196,392.827 349.177,330L350.177,98.841ZM360,98.841L360,73M366,98.841L366,81M373,98.841L373,86" style="fill:none;stroke:rgb(233,216,166);stroke-width:4.19px;"/>
            </g>
            <g transform="matrix(1,0,0,1,-99.1773,-28)">
                <path d="M350.177,98.841L387.839,98.841C390.093,171.537 399.253,240.006 417.604,302.851C449.951,378.357 445.954,419.137 417.177,420C377.15,422.362 354.196,392.827 349.177,330L350.177,98.841ZM360,98.841L360,73M366,98.841L366,81M373,98.841L373,86" style="fill:none;stroke:rgb(233,216,166);stroke-width:4.19px;"/>
            </g>
            <g transform="matrix(1,0,0,1,-49.1773,-6.56556)">
                <path d="M350.177,98.841L387.839,98.841C390.093,171.537 399.253,240.006 417.604,302.851C449.951,378.357 445.954,419.137 417.177,420C377.15,422.362 354.196,392.827 349.177,330L350.177,98.841ZM360,98.841L360,73M366,98.841L366,81M373,98.841L373,86" style="fill:none;stroke:rgb(233,216,166);stroke-width:4.19px;"/>
            </g>
            <g transform="matrix(1,0,0,1,0.822662,14.8689)">
                <path d="M350.177,98.841L387.839,98.841C390.093,171.537 399.253,240.006 417.604,302.851C449.951,378.357 445.954,419.137 417.177,420C377.15,422.362 354.196,392.827 349.177,330L350.177,98.841ZM360,98.841L360,73M366,98.841L366,81M373,98.841L373,86" style="fill:none;stroke:rgb(233,216,166);stroke-width:4.19px;"/>
            </g>
            <g transform="matrix(1,0,0,1,50.8227,37.7172)">
                <path d="M350.177,98.841L387.839,98.841C390.093,171.537 399.253,240.006 417.604,302.851C449.951,378.357 445.954,419.137 417.177,420C377.15,422.362 354.196,392.827 349.177,330L350.177,98.841ZM360,98.841L360,73M366,98.841L366,81M373,98.841L373,86" style="fill:none;stroke:rgb(233,216,166);stroke-width:4.19px;"/>
            </g>
            <g transform="matrix(1,0,0,1,100.823,59.1517)">
                <path d="M350.177,98.841L387.839,98.841C390.093,171.537 399.253,240.006 417.604,302.851C449.951,378.357 445.954,419.137 417.177,420C377.15,422.362 354.196,392.827 349.177,330L350.177,98.841ZM360,98.841L360,73M366,98.841L366,81M373,98.841L373,86" style="fill:none;stroke:rgb(233,216,166);stroke-width:4.19px;"/>
            </g>
        </g>
        <g transform="matrix(1,0,0,1,53.9678,60.3023)">
            <g transform="matrix(1,0,0,1,-150.342,-46.5656)">
                <path d="M350.177,98.841L387.839,98.841C390.093,171.537 399.253,240.006 417.604,302.851C449.951,378.357 445.954,419.137 417.177,420C377.15,422.362 354.196,392.827 349.177,330L350.177,98.841ZM360,98.841L360,73M366,98.841L366,81M373,98.841L373,86" style="fill:none;stroke:rgb(233,216,166);stroke-width:4.19px;"/>
            </g>
            <g transform="matrix(1,0,0,1,-99.1773,-28)">
                <path d="M350.177,98.841L387.839,98.841C390.093,171.537 399.253,240.006 417.604,302.851C449.951,378.357 445.954,419.137 417.177,420C377.15,422.362 354.196,392.827 349.177,330L350.177,98.841ZM360,98.841L360,73M366,98.841L366,81M373,98.841L373,86" style="fill:none;stroke:rgb(233,216,166);stroke-width:4.19px;"/>
            </g>
            <g transform="matrix(1,0,0,1,-49.1773,-6.56556)">
                <path d="M350.177,98.841L387.839,98.841C390.093,171.537 399.253,240.006 417.604,302.851C449.951,378.357 445.954,419.137 417.177,420C377.15,422.362 354.196,392.827 349.177,330L350.177,98.841ZM360,98.841L360,73M366,98.841L366,81M373,98.841L373,86" style="fill:none;stroke:rgb(233,216,166);stroke-width:4.19px;"/>
            </g>
            <g transform="matrix(1,0,0,1,0.822662,14.8689)">
                <path d="M350.177,98.841L387.839,98.841C390.093,171.537 399.253,240.006 417.604,302.851C449.951,378.357 445.954,419.137 417.177,420C377.15,422.362 354.196,392.827 349.177,330L350.177,98.841ZM360,98.841L360,73M366,98.841L366,81M373,98.841L373,86" style="fill:none;stroke:rgb(233,216,166);stroke-width:4.19px;"/>
            </g>
            <g transform="matrix(1,0,0,1,50.8227,37.7172)">
                <path d="M350.177,98.841L387.839,98.841C390.093,171.537 399.253,240.006 417.604,302.851C449.951,378.357 445.954,419.137 417.177,420C377.15,422.362 354.196,392.827 349.177,330L350.177,98.841ZM360,98.841L360,73M366,98.841L366,81M373,98.841L373,86" style="fill:none;stroke:rgb(233,216,166);stroke-width:4.19px;"/>
            </g>
            <g transform="matrix(1,0,0,1,100.823,59.1517)">
                <path d="M350.177,98.841L387.839,98.841C390.093,171.537 399.253,240.006 417.604,302.851C449.951,378.357 445.954,419.137 417.177,420C377.15,422.362 354.196,392.827 349.177,330L350.177,98.841ZM360,98.841L360,73M366,98.841L366,81M373,98.841L373,86" style="fill:none;stroke:rgb(233,216,166);stroke-width:4.19px;"/>
            </g>
        </g>
        <g transform="matrix(1,0,0,1,102.173,176.96)">
            <g transform="matrix(1,0,0,1,-150.342,-46.5656)">
                <path d="M350.177,98.841L387.839,98.841C390.093,171.537 399.253,240.006 417.604,302.851C449.951,378.357 445.954,419.137 417.177,420C377.15,422.362 354.196,392.827 349.177,330L350.177,98.841ZM360,98.841L360,73M366,98.841L366,81M373,98.841L373,86" style="fill:none;stroke:rgb(233,216,166);stroke-width:4.19px;"/>
            </g>
            <g transform="matrix(1,0,0,1,-99.1773,-28)">
                <path d="M350.177,98.841L387.839,98.841C390.093,171.537 399.253,240.006 417.604,302.851C449.951,378.357 445.954,419.137 417.177,420C377.15,422.362 354.196,392.827 349.177,330L350.177,98.841ZM360,98.841L360,73M366,98.841L366,81M373,98.841L373,86" style="fill:none;stroke:rgb(233,216,166);stroke-width:4.19px;"/>
            </g>
            <g transform="matrix(1,0,0,1,-49.1773,-6.56556)">
                <path d="M350.177,98.841L387.839,98.841C390.093,171.537 399.253,240.006 417.604,302.851C449.951,378.357 445.954,419.137 417.177,420C377.15,422.362 354.196,392.827 349.177,330L350.177,98.841ZM360,98.841L360,73M366,98.841L366,81M373,98.841L373,86" style="fill:none;stroke:rgb(233,216,166);stroke-width:4.19px;"/>
            </g>
            <g transform="matrix(1,0,0,1,0.822662,14.8689)">
                <path d="M350.177,98.841L387.839,98.841C390.093,171.537 399.253,240.006 417.604,302.851C449.951,378.357 445.954,419.137 417.177,420C377.15,422.362 354.196,392.827 349.177,330L350.177,98.841ZM360,98.841L360,73M366,98.841L366,81M373,98.841L373,86" style="fill:none;stroke:rgb(233,216,166);stroke-width:4.19px;"/>
            </g>
            <g transform="matrix(1,0,0,1,50.8227,37.7172)">
                <path d="M350.177,98.841L387.839,98.841C390.093,171.537 399.253,240.006 417.604,302.851C449.951,378.357 445.954,419.137 417.177,420C377.15,422.362 354.196,392.827 349.177,330L350.177,98.841ZM360,98.841L360,73M366,98.841L366,81M373,98.841L373,86" style="fill:none;stroke:rgb(233,216,166);stroke-width:4.19px;"/>
            </g>
            <g transform="matrix(1,0,0,1,100.823,59.1517)">
                <path d="M350.177,98.841L387.839,98.841C390.093,171.537 399.253,240.006 417.604,302.851C449.951,378.357 445.954,419.137 417.177,420C377.15,422.362 354.196,392.827 349.177,330L350.177,98.841ZM360,98.841L360,73M366,98.841L366,81M373,98.841L373,86" style="fill:none;stroke:rgb(233,216,166);stroke-width:4.19px;"/>
            </g>
        </g>
    </g>
    <g transform="matrix(1,0,0,1,-200,-97.7465)">
        <rect x="200" y="100" width="400" height="400" style="fill:none;"/>
    </g>
</svg>
