<?xml version="1.0" encoding="UTF-8" standalone="no"?>
<!DOCTYPE svg PUBLIC "-//W3C//DTD SVG 1.1//EN" "http://www.w3.org/Graphics/SVG/1.1/DTD/svg11.dtd">
<svg width="100%" height="100%" viewBox="0 0 700 700" version="1.1" xmlns="http://www.w3.org/2000/svg" xmlns:xlink="http://www.w3.org/1999/xlink" xml:space="preserve" xmlns:serif="http://www.serif.com/" style="fill-rule:evenodd;clip-rule:evenodd;stroke-linecap:square;stroke-miterlimit:1.5;">
    <g transform="matrix(1,0,0,1,-1581.73,-437.344)">
        <g transform="matrix(1,0,0,1,286.703,139.598)">
            <g>
                <g transform="matrix(0.65675,0,0,1,1232.89,29.1539)">
                    <path d="M349.875,349.875L349.875,583.125C349.875,583.125 355.768,663.111 437.344,670.594C511.025,677.352 493.046,604.788 453.463,553.971C453.463,553.971 406.009,449.977 408.187,349.875L349.875,349.875ZM358.898,355.801L399.093,355.801C398.846,454.886 444.819,555.672 444.819,555.672L445.055,556.189L445.43,556.67C468.231,585.943 484.039,622.66 477.379,646.006C475.513,652.546 471.901,657.935 465.476,661.312C459.156,664.633 450.286,665.797 438.592,664.725C409.187,662.027 390.942,648.671 379.337,633.861C361.679,611.325 359.088,585.161 358.9,582.984C358.898,576.234 358.898,355.801 358.898,355.801L358.898,355.801Z"/>
                </g>
                <g transform="matrix(1,0,0,1,1107.94,29.1539)">
                    <path d="M359.594,349.875L359.594,311" style="fill:none;stroke:black;stroke-width:5.93px;"/>
                </g>
                <g transform="matrix(1,0,0,1.25,1098.22,-58.3125)">
                    <path d="M379.031,330.438L379.031,349.875" style="fill:none;stroke:black;stroke-width:5.24px;"/>
                </g>
                <g transform="matrix(1,0,0,0.833333,1088.5,89.8984)">
                    <path d="M398.469,335.297L398.469,349.875" style="fill:none;stroke:black;stroke-width:6.44px;"/>
                </g>
            </g>
            <g transform="matrix(1,0,0,1,48.5938,33.5779)">
                <g transform="matrix(0.65675,0,0,1,1232.89,29.1539)">
                    <path d="M349.875,349.875L349.875,583.125C349.875,583.125 355.768,663.111 437.344,670.594C511.025,677.352 493.046,604.788 453.463,553.971C453.463,553.971 406.009,449.977 408.187,349.875L349.875,349.875ZM358.898,355.801L399.093,355.801C398.846,454.886 444.819,555.672 444.819,555.672L445.055,556.189L445.43,556.67C468.231,585.943 484.039,622.66 477.379,646.006C475.513,652.546 471.901,657.935 465.476,661.312C459.156,664.633 450.286,665.797 438.592,664.725C409.187,662.027 390.942,648.671 379.337,633.861C361.679,611.325 359.088,585.161 358.9,582.984C358.898,582.968 358.898,355.801 358.898,355.801L358.898,355.801Z"/>
                </g>
                <g transform="matrix(1,0,0,1,1107.94,29.1539)">
                    <path d="M359.594,349.875L359.594,311" style="fill:none;stroke:black;stroke-width:5.93px;"/>
                </g>
                <g transform="matrix(1,0,0,1.25,1098.22,-58.3125)">
                    <path d="M379.031,330.438L379.031,349.875" style="fill:none;stroke:black;stroke-width:5.24px;"/>
                </g>
                <g transform="matrix(1,0,0,0.863356,1088.5,79.8318)">
                    <path d="M398.469,335.297L398.469,349.875" style="fill:none;stroke:black;stroke-width:6.34px;"/>
                </g>
            </g>
            <g transform="matrix(1,0,0,1,100.464,63.1742)">
                <g transform="matrix(0.65675,0,0,1,1232.89,29.1539)">
                    <path d="M349.875,349.875L349.875,583.125C349.875,583.125 355.768,663.111 437.344,670.594C511.025,677.352 493.046,604.788 453.463,553.971C453.463,553.971 406.009,449.977 408.187,349.875L349.875,349.875ZM358.898,355.801L399.093,355.801C398.846,454.886 444.819,555.672 444.819,555.672L445.055,556.189L445.43,556.67C468.231,585.943 484.039,622.66 477.379,646.006C475.513,652.546 471.901,657.935 465.476,661.312C459.156,664.633 450.286,665.797 438.592,664.725C409.187,662.027 390.942,648.671 379.337,633.861C361.679,611.325 359.088,585.161 358.9,582.984C358.898,582.968 358.898,355.801 358.898,355.801L358.898,355.801Z"/>
                </g>
                <g transform="matrix(1,0,0,1,1107.94,29.1539)">
                    <path d="M359.594,349.875L359.594,311" style="fill:none;stroke:black;stroke-width:5.93px;"/>
                </g>
                <g transform="matrix(1,0,0,1.25,1098.22,-58.3125)">
                    <path d="M379.031,330.438L379.031,349.875" style="fill:none;stroke:black;stroke-width:5.24px;"/>
                </g>
                <g transform="matrix(1,0,0,0.833172,1088.5,89.9526)">
                    <path d="M398.469,335.297L398.469,349.875" style="fill:none;stroke:black;stroke-width:6.44px;"/>
                </g>
            </g>
            <g transform="matrix(1,0,0,1,153.917,89.6796)">
                <g transform="matrix(0.65675,0,0,1,1232.89,29.1539)">
                    <path d="M349.875,349.875L349.875,583.125C349.875,583.125 355.768,663.111 437.344,670.594C511.025,677.352 493.046,604.788 453.463,553.971C453.463,553.971 406.009,449.977 408.187,349.875L349.875,349.875ZM358.898,355.801L399.093,355.801C398.846,454.886 444.819,555.672 444.819,555.672L445.055,556.189L445.43,556.67C468.231,585.943 484.039,622.66 477.379,646.006C475.513,652.546 471.901,657.935 465.476,661.312C459.156,664.633 450.286,665.797 438.592,664.725C409.187,662.027 390.942,648.671 379.337,633.861C361.679,611.325 359.088,585.161 358.9,582.984C358.898,576.234 358.898,355.801 358.898,355.801L358.898,355.801Z"/>
                </g>
                <g transform="matrix(1,0,0,1,1107.94,29.1539)">
                    <path d="M359.594,349.875L359.594,311" style="fill:none;stroke:black;stroke-width:5.93px;"/>
                </g>
                <g transform="matrix(1,0,0,1.25,1098.22,-58.3125)">
                    <path d="M379.031,330.438L379.031,349.875" style="fill:none;stroke:black;stroke-width:5.24px;"/>
                </g>
                <g transform="matrix(1,0,0,0.848345,1088.5,84.8651)">
                    <path d="M398.469,335.297L398.469,349.875" style="fill:none;stroke:black;stroke-width:6.39px;"/>
                </g>
            </g>
            <g transform="matrix(1,0,0,1,202.511,123.258)">
                <g transform="matrix(0.65675,0,0,1,1232.89,29.1539)">
                    <path d="M349.875,349.875L349.875,583.125C349.875,583.125 355.768,663.111 437.344,670.594C511.025,677.352 493.046,604.788 453.463,553.971C453.463,553.971 406.009,449.977 408.187,349.875L349.875,349.875ZM358.898,355.801L399.093,355.801C398.846,454.886 444.819,555.672 444.819,555.672L445.055,556.189L445.43,556.67C468.231,585.943 484.039,622.66 477.379,646.006C475.513,652.546 471.901,657.935 465.476,661.312C459.156,664.633 450.286,665.797 438.592,664.725C409.187,662.027 390.942,648.671 379.337,633.861C361.679,611.325 359.088,585.161 358.9,582.984C358.898,582.968 358.898,355.801 358.898,355.801L358.898,355.801Z"/>
                </g>
                <g transform="matrix(1,0,0,1,1107.94,29.1539)">
                    <path d="M359.594,349.875L359.594,311" style="fill:none;stroke:black;stroke-width:5.93px;"/>
                </g>
                <g transform="matrix(1,0,0,1.25,1098.22,-58.3125)">
                    <path d="M379.031,330.438L379.031,349.875" style="fill:none;stroke:black;stroke-width:5.24px;"/>
                </g>
                <g transform="matrix(1,0,0,0.711701,1088.5,130.681)">
                    <path d="M398.469,335.297L398.469,349.875" style="fill:none;stroke:black;stroke-width:6.83px;"/>
                </g>
            </g>
            <g transform="matrix(1,0,0,1,254.381,152.854)">
                <g transform="matrix(0.65675,0,0,1,1232.89,29.1539)">
                    <path d="M349.875,349.875L349.875,583.125C349.875,583.125 355.768,663.111 437.344,670.594C511.025,677.352 493.046,604.788 453.463,553.971C453.463,553.971 406.009,449.977 408.187,349.875L349.875,349.875ZM358.898,355.801L399.093,355.801C398.846,454.886 444.819,555.672 444.819,555.672L445.055,556.189L445.43,556.67C468.231,585.943 484.039,622.66 477.379,646.006C475.513,652.546 471.901,657.935 465.476,661.312C459.156,664.633 450.286,665.797 438.592,664.725C409.187,662.027 390.942,648.671 379.337,633.861C361.679,611.325 359.088,585.161 358.9,582.984C358.898,576.803 358.898,391.52 358.898,355.801L358.898,355.801Z"/>
                </g>
                <g transform="matrix(1,0,0,1,1107.94,29.1539)">
                    <path d="M359.594,349.875L359.594,311" style="fill:none;stroke:black;stroke-width:5.93px;"/>
                </g>
                <g transform="matrix(1,0,0,1.25,1098.22,-58.3125)">
                    <path d="M379.031,330.438L379.031,349.875" style="fill:none;stroke:black;stroke-width:5.24px;"/>
                </g>
                <g transform="matrix(1,0,0,0.848183,1088.5,84.9193)">
                    <path d="M398.469,335.297L398.469,349.875" style="fill:none;stroke:black;stroke-width:6.39px;"/>
                </g>
            </g>
        </g>
        <g transform="matrix(1,0,0,1,306.141,241.644)">
            <g>
                <g transform="matrix(0.65675,0,0,1,1232.89,29.1539)">
                    <path d="M349.875,349.875L349.875,583.125C349.875,583.125 355.768,663.111 437.344,670.594C511.025,677.352 493.046,604.788 453.463,553.971C453.463,553.971 406.009,449.977 408.187,349.875L349.875,349.875ZM358.898,355.801L399.093,355.801C398.846,454.886 444.819,555.672 444.819,555.672L445.055,556.189L445.43,556.67C468.231,585.943 484.039,622.66 477.379,646.006C475.513,652.546 471.901,657.935 465.476,661.312C459.156,664.633 450.286,665.797 438.592,664.725C409.187,662.027 390.942,648.671 379.337,633.861C361.679,611.325 359.088,585.161 358.9,582.984C358.898,576.234 358.898,355.801 358.898,355.801L358.898,355.801Z"/>
                </g>
                <g transform="matrix(1,0,0,1,1107.94,29.1539)">
                    <path d="M359.594,349.875L359.594,311" style="fill:none;stroke:black;stroke-width:5.93px;"/>
                </g>
                <g transform="matrix(1,0,0,1.25,1098.22,-58.3125)">
                    <path d="M379.031,330.438L379.031,349.875" style="fill:none;stroke:black;stroke-width:5.24px;"/>
                </g>
                <g transform="matrix(1,0,0,0.833333,1088.5,89.8984)">
                    <path d="M398.469,335.297L398.469,349.875" style="fill:none;stroke:black;stroke-width:6.44px;"/>
                </g>
            </g>
            <g transform="matrix(1,0,0,1,48.5938,33.5779)">
                <g transform="matrix(0.65675,0,0,1,1232.89,29.1539)">
                    <path d="M349.875,349.875L349.875,583.125C349.875,583.125 355.768,663.111 437.344,670.594C511.025,677.352 493.046,604.788 453.463,553.971C453.463,553.971 406.009,449.977 408.187,349.875L349.875,349.875ZM358.898,355.801L399.093,355.801C398.846,454.886 444.819,555.672 444.819,555.672L445.055,556.189L445.43,556.67C468.231,585.943 484.039,622.66 477.379,646.006C475.513,652.546 471.901,657.935 465.476,661.312C459.156,664.633 450.286,665.797 438.592,664.725C409.187,662.027 390.942,648.671 379.337,633.861C361.679,611.325 359.088,585.161 358.9,582.984C358.898,576.234 358.898,355.801 358.898,355.801L358.898,355.801Z"/>
                </g>
                <g transform="matrix(1,0,0,1,1107.94,29.1539)">
                    <path d="M359.594,349.875L359.594,311" style="fill:none;stroke:black;stroke-width:5.93px;"/>
                </g>
                <g transform="matrix(1,0,0,1.25,1098.22,-58.3125)">
                    <path d="M379.031,330.438L379.031,349.875" style="fill:none;stroke:black;stroke-width:5.24px;"/>
                </g>
                <g transform="matrix(1,0,0,0.863356,1088.5,79.8318)">
                    <path d="M398.469,335.297L398.469,349.875" style="fill:none;stroke:black;stroke-width:6.34px;"/>
                </g>
            </g>
            <g transform="matrix(1,0,0,1,100.464,63.1742)">
                <g transform="matrix(0.65675,0,0,1,1232.89,29.1539)">
                    <path d="M349.875,349.875L349.875,583.125C349.875,583.125 355.768,663.111 437.344,670.594C511.025,677.352 493.046,604.788 453.463,553.971C453.463,553.971 406.009,449.977 408.187,349.875L349.875,349.875ZM358.898,355.801L399.093,355.801C398.846,454.886 444.819,555.672 444.819,555.672L445.055,556.189L445.43,556.67C468.231,585.943 484.039,622.66 477.379,646.006C475.513,652.546 471.901,657.935 465.476,661.312C459.156,664.633 450.286,665.797 438.592,664.725C409.187,662.027 390.942,648.671 379.337,633.861C361.679,611.325 359.088,585.161 358.9,582.984C358.898,582.968 358.898,355.801 358.898,355.801L358.898,355.801Z"/>
                </g>
                <g transform="matrix(1,0,0,1,1107.94,29.1539)">
                    <path d="M359.594,349.875L359.594,311" style="fill:none;stroke:black;stroke-width:5.93px;"/>
                </g>
                <g transform="matrix(1,0,0,1.25,1098.22,-58.3125)">
                    <path d="M379.031,330.438L379.031,349.875" style="fill:none;stroke:black;stroke-width:5.24px;"/>
                </g>
                <g transform="matrix(1,0,0,0.833172,1088.5,89.9526)">
                    <path d="M398.469,335.297L398.469,349.875" style="fill:none;stroke:black;stroke-width:6.44px;"/>
                </g>
            </g>
            <g transform="matrix(1,0,0,1,153.917,89.6796)">
                <g transform="matrix(0.65675,0,0,1,1232.89,29.1539)">
                    <path d="M349.875,349.875L349.875,583.125C349.875,583.125 355.768,663.111 437.344,670.594C511.025,677.352 493.046,604.788 453.463,553.971C453.463,553.971 406.009,449.977 408.187,349.875L349.875,349.875ZM358.898,355.801L399.093,355.801C398.846,454.886 444.819,555.672 444.819,555.672L445.055,556.189L445.43,556.67C468.231,585.943 484.039,622.66 477.379,646.006C475.513,652.546 471.901,657.935 465.476,661.312C459.156,664.633 450.286,665.797 438.592,664.725C409.187,662.027 390.942,648.671 379.337,633.861C361.679,611.325 359.088,585.161 358.9,582.984C358.898,582.968 358.898,355.801 358.898,355.801L358.898,355.801Z"/>
                </g>
                <g transform="matrix(1,0,0,1,1107.94,29.1539)">
                    <path d="M359.594,349.875L359.594,311" style="fill:none;stroke:black;stroke-width:5.93px;"/>
                </g>
                <g transform="matrix(1,0,0,1.25,1098.22,-58.3125)">
                    <path d="M379.031,330.438L379.031,349.875" style="fill:none;stroke:black;stroke-width:5.24px;"/>
                </g>
                <g transform="matrix(1,0,0,0.848345,1088.5,84.8651)">
                    <path d="M398.469,335.297L398.469,349.875" style="fill:none;stroke:black;stroke-width:6.39px;"/>
                </g>
            </g>
            <g transform="matrix(1,0,0,1,202.511,123.258)">
                <g transform="matrix(0.65675,0,0,1,1232.89,29.1539)">
                    <path d="M349.875,349.875L349.875,583.125C349.875,583.125 355.768,663.111 437.344,670.594C511.025,677.352 493.046,604.788 453.463,553.971C453.463,553.971 406.009,449.977 408.188,349.875L349.875,349.875ZM358.898,355.801L399.093,355.801C398.846,454.886 444.819,555.672 444.819,555.672L445.055,556.189L445.43,556.67C468.231,585.943 484.039,622.66 477.379,646.006C475.513,652.546 471.901,657.935 465.476,661.312C459.156,664.633 450.286,665.797 438.592,664.725C409.187,662.027 390.942,648.671 379.337,633.861C361.679,611.325 359.088,585.161 358.9,582.984C358.898,576.234 358.898,355.801 358.898,355.801L358.898,355.801Z"/>
                </g>
                <g transform="matrix(1,0,0,1,1107.94,29.1539)">
                    <path d="M359.594,349.875L359.594,311" style="fill:none;stroke:black;stroke-width:5.93px;"/>
                </g>
                <g transform="matrix(1,0,0,1.25,1098.22,-58.3125)">
                    <path d="M379.031,330.438L379.031,349.875" style="fill:none;stroke:black;stroke-width:5.24px;"/>
                </g>
                <g transform="matrix(1,0,0,0.711701,1088.5,130.681)">
                    <path d="M398.469,335.297L398.469,349.875" style="fill:none;stroke:black;stroke-width:6.83px;"/>
                </g>
            </g>
            <g transform="matrix(1,0,0,1,254.381,152.854)">
                <g transform="matrix(0.65675,0,0,1,1232.89,29.1539)">
                    <path d="M349.875,349.875L349.875,583.125C349.875,583.125 355.768,663.111 437.344,670.594C511.025,677.352 493.046,604.788 453.463,553.971C453.463,553.971 406.009,449.977 408.187,349.875L349.875,349.875ZM358.898,355.801L399.093,355.801C398.846,454.886 444.819,555.672 444.819,555.672L445.055,556.189L445.43,556.67C468.231,585.943 484.039,622.66 477.379,646.006C475.513,652.546 471.901,657.935 465.476,661.312C459.156,664.633 450.286,665.797 438.592,664.725C409.187,662.027 390.942,648.671 379.337,633.861C361.679,611.325 359.088,585.161 358.9,582.984C358.898,576.803 358.898,391.52 358.898,355.801L358.898,355.801Z"/>
                </g>
                <g transform="matrix(1,0,0,1,1107.94,29.1539)">
                    <path d="M359.594,349.875L359.594,311" style="fill:none;stroke:black;stroke-width:5.93px;"/>
                </g>
                <g transform="matrix(1,0,0,1.25,1098.22,-58.3125)">
                    <path d="M379.031,330.438L379.031,349.875" style="fill:none;stroke:black;stroke-width:5.24px;"/>
                </g>
                <g transform="matrix(1,0,0,0.848183,1088.5,84.9193)">
                    <path d="M398.469,335.297L398.469,349.875" style="fill:none;stroke:black;stroke-width:6.39px;"/>
                </g>
            </g>
        </g>
        <g transform="matrix(1,0,0,1,296.422,190.397)">
            <g>
                <g transform="matrix(0.65675,0,0,1,1232.89,29.1539)">
                    <path d="M349.875,349.875L349.875,583.125C349.875,583.125 355.768,663.111 437.344,670.594C511.025,677.352 493.046,604.788 453.463,553.971C453.463,553.971 406.009,449.977 408.187,349.875L349.875,349.875ZM358.898,355.801L399.093,355.801C398.846,454.886 444.819,555.672 444.819,555.672L445.055,556.189L445.43,556.67C468.231,585.943 484.039,622.66 477.379,646.006C475.513,652.546 471.901,657.935 465.476,661.312C459.156,664.633 450.286,665.797 438.592,664.725C409.187,662.027 390.942,648.671 379.337,633.861C361.679,611.325 359.088,585.161 358.9,582.984C358.898,582.968 358.898,355.801 358.898,355.801L358.898,355.801Z"/>
                </g>
                <g transform="matrix(1,0,0,1,1107.94,29.1539)">
                    <path d="M359.594,349.875L359.594,311" style="fill:none;stroke:black;stroke-width:5.93px;"/>
                </g>
                <g transform="matrix(1,0,0,1.25,1098.22,-58.3125)">
                    <path d="M379.031,330.438L379.031,349.875" style="fill:none;stroke:black;stroke-width:5.24px;"/>
                </g>
                <g transform="matrix(1,0,0,0.833333,1088.5,89.8984)">
                    <path d="M398.469,335.297L398.469,349.875" style="fill:none;stroke:black;stroke-width:6.44px;"/>
                </g>
            </g>
            <g transform="matrix(1,0,0,1,48.5938,33.5779)">
                <g transform="matrix(0.65675,0,0,1,1232.89,29.1539)">
                    <path d="M349.875,349.875L349.875,583.125C349.875,583.125 355.768,663.111 437.344,670.594C511.025,677.352 493.046,604.788 453.463,553.971C453.463,553.971 406.009,449.977 408.187,349.875L349.875,349.875ZM358.898,355.801L399.093,355.801C398.846,454.886 444.819,555.672 444.819,555.672L445.055,556.189L445.43,556.67C468.231,585.943 484.039,622.66 477.379,646.006C475.513,652.546 471.901,657.935 465.476,661.312C459.156,664.633 450.286,665.797 438.592,664.725C409.187,662.027 390.942,648.671 379.337,633.861C361.679,611.325 359.088,585.161 358.9,582.984C358.898,582.968 358.898,355.801 358.898,355.801L358.898,355.801Z"/>
                </g>
                <g transform="matrix(1,0,0,1,1107.94,29.1539)">
                    <path d="M359.594,349.875L359.594,311" style="fill:none;stroke:black;stroke-width:5.93px;"/>
                </g>
                <g transform="matrix(1,0,0,1.25,1098.22,-58.3125)">
                    <path d="M379.031,330.438L379.031,349.875" style="fill:none;stroke:black;stroke-width:5.24px;"/>
                </g>
                <g transform="matrix(1,0,0,0.863356,1088.5,79.8318)">
                    <path d="M398.469,335.297L398.469,349.875" style="fill:none;stroke:black;stroke-width:6.34px;"/>
                </g>
            </g>
            <g transform="matrix(1,0,0,1,100.464,63.1742)">
                <g transform="matrix(0.65675,0,0,1,1232.89,29.1539)">
                    <path d="M349.875,349.875L349.875,583.125C349.875,583.125 355.768,663.111 437.344,670.594C511.025,677.352 493.046,604.788 453.463,553.971C453.463,553.971 406.009,449.977 408.187,349.875L349.875,349.875ZM358.898,355.801L399.093,355.801C398.846,454.886 444.819,555.672 444.819,555.672L445.055,556.189L445.43,556.67C468.231,585.943 484.039,622.66 477.379,646.006C475.513,652.546 471.901,657.935 465.476,661.312C459.156,664.633 450.286,665.797 438.592,664.725C409.187,662.027 390.942,648.671 379.337,633.861C361.679,611.325 359.088,585.161 358.9,582.984C358.898,576.234 358.898,355.801 358.898,355.801L358.898,355.801Z"/>
                </g>
                <g transform="matrix(1,0,0,1,1107.94,29.1539)">
                    <path d="M359.594,349.875L359.594,311" style="fill:none;stroke:black;stroke-width:5.93px;"/>
                </g>
                <g transform="matrix(1,0,0,1.25,1098.22,-58.3125)">
                    <path d="M379.031,330.438L379.031,349.875" style="fill:none;stroke:black;stroke-width:5.24px;"/>
                </g>
                <g transform="matrix(1,0,0,0.833172,1088.5,89.9526)">
                    <path d="M398.469,335.297L398.469,349.875" style="fill:none;stroke:black;stroke-width:6.44px;"/>
                </g>
            </g>
            <g transform="matrix(1,0,0,1,153.917,89.6796)">
                <g transform="matrix(0.65675,0,0,1,1232.89,29.1539)">
                    <path d="M349.875,349.875L349.875,583.125C349.875,583.125 355.768,663.111 437.344,670.594C511.025,677.352 493.046,604.788 453.463,553.971C453.463,553.971 406.009,449.977 408.187,349.875L349.875,349.875ZM358.898,355.801L399.093,355.801C398.846,454.886 444.819,555.672 444.819,555.672L445.055,556.189L445.43,556.67C468.231,585.943 484.039,622.66 477.379,646.006C475.513,652.546 471.901,657.935 465.476,661.312C459.156,664.633 450.286,665.797 438.592,664.725C409.187,662.027 390.942,648.671 379.337,633.861C361.679,611.325 359.088,585.161 358.9,582.984C358.898,576.803 358.898,391.52 358.898,355.801L358.898,355.801Z"/>
                </g>
                <g transform="matrix(1,0,0,1,1107.94,29.1539)">
                    <path d="M359.594,349.875L359.594,311" style="fill:none;stroke:black;stroke-width:5.93px;"/>
                </g>
                <g transform="matrix(1,0,0,1.25,1098.22,-58.3125)">
                    <path d="M379.031,330.438L379.031,349.875" style="fill:none;stroke:black;stroke-width:5.24px;"/>
                </g>
                <g transform="matrix(1,0,0,0.848345,1088.5,84.8651)">
                    <path d="M398.469,335.297L398.469,349.875" style="fill:none;stroke:black;stroke-width:6.39px;"/>
                </g>
            </g>
            <g transform="matrix(1,0,0,1,202.511,123.258)">
                <g transform="matrix(0.65675,0,0,1,1232.89,29.1539)">
                    <path d="M349.875,349.875L349.875,583.125C349.875,583.125 355.768,663.111 437.344,670.594C511.025,677.352 493.046,604.788 453.463,553.971C453.463,553.971 406.009,449.977 408.188,349.875L349.875,349.875ZM358.898,355.801L399.093,355.801C398.846,454.886 444.819,555.672 444.819,555.672L445.055,556.189L445.43,556.67C468.231,585.943 484.039,622.66 477.379,646.006C475.513,652.546 471.901,657.935 465.476,661.312C459.156,664.633 450.286,665.797 438.592,664.725C409.187,662.027 390.942,648.671 379.337,633.861C361.679,611.325 359.088,585.161 358.9,582.984C358.898,576.234 358.898,355.801 358.898,355.801L358.898,355.801Z"/>
                </g>
                <g transform="matrix(1,0,0,1,1107.94,29.1539)">
                    <path d="M359.594,349.875L359.594,311" style="fill:none;stroke:black;stroke-width:5.93px;"/>
                </g>
                <g transform="matrix(1,0,0,1.25,1098.22,-58.3125)">
                    <path d="M379.031,330.438L379.031,349.875" style="fill:none;stroke:black;stroke-width:5.24px;"/>
                </g>
                <g transform="matrix(1,0,0,0.711701,1088.5,130.681)">
                    <path d="M398.469,335.297L398.469,349.875" style="fill:none;stroke:black;stroke-width:6.83px;"/>
                </g>
            </g>
            <g transform="matrix(1,0,0,1,254.381,152.854)">
                <g transform="matrix(0.65675,0,0,1,1232.89,29.1539)">
                    <path d="M349.875,349.875L349.875,583.125C349.875,583.125 355.768,663.111 437.344,670.594C511.025,677.352 493.046,604.788 453.463,553.971C453.463,553.971 406.009,449.977 408.187,349.875L349.875,349.875ZM358.898,355.801L399.093,355.801C398.846,454.886 444.819,555.672 444.819,555.672L445.055,556.189L445.43,556.67C468.231,585.943 484.039,622.66 477.379,646.006C475.513,652.546 471.901,657.935 465.476,661.312C459.156,664.633 450.286,665.797 438.592,664.725C409.187,662.027 390.942,648.671 379.337,633.861C361.679,611.325 359.088,585.161 358.9,582.984C358.898,582.968 358.898,355.801 358.898,355.801L358.898,355.801Z"/>
                </g>
                <g transform="matrix(1,0,0,1,1107.94,29.1539)">
                    <path d="M359.594,349.875L359.594,311" style="fill:none;stroke:black;stroke-width:5.93px;"/>
                </g>
                <g transform="matrix(1,0,0,1.25,1098.22,-58.3125)">
                    <path d="M379.031,330.438L379.031,349.875" style="fill:none;stroke:black;stroke-width:5.24px;"/>
                </g>
                <g transform="matrix(1,0,0,0.848183,1088.5,84.9193)">
                    <path d="M398.469,335.297L398.469,349.875" style="fill:none;stroke:black;stroke-width:6.39px;"/>
                </g>
            </g>
        </g>
    </g>
    <g transform="matrix(1,0,0,1,-699.75,-1049.62)">
        <rect x="699.75" y="1049.62" width="699.75" height="699.75" style="fill:none;"/>
    </g>
</svg>
