<?xml version="1.0" encoding="UTF-8" standalone="no"?>
<!DOCTYPE svg PUBLIC "-//W3C//DTD SVG 1.1//EN" "http://www.w3.org/Graphics/SVG/1.1/DTD/svg11.dtd">
<svg width="100%" height="100%" viewBox="0 0 400 400" version="1.1" xmlns="http://www.w3.org/2000/svg" xmlns:xlink="http://www.w3.org/1999/xlink" xml:space="preserve" xmlns:serif="http://www.serif.com/" style="fill-rule:evenodd;clip-rule:evenodd;stroke-linejoin:round;stroke-miterlimit:2;">
    <g transform="matrix(1,0,0,1,-400,-400)">
        <rect x="400" y="400" width="400" height="400" style="fill:rgb(238,155,0);"/>
    </g>
    <g transform="matrix(6.98335,0,0,6.98335,-9591.33,-7340.18)">
        <g transform="matrix(0.508906,0,0,2.16757,953.6,-491.07)">
            <path d="M876.915,731.294C879.58,731.294 882.059,731.106 884.351,730.731C885.63,730.506 887.15,730.155 888.909,729.68L888.909,724.067C884.538,724.317 880.7,724.711 877.395,725.249C871.798,726.163 869,727.327 869,728.741C869,729.58 869.812,730.215 871.438,730.646C873.064,731.078 874.89,731.294 876.915,731.294ZM845.173,729.905C845.173,728.178 848.717,726.807 855.807,725.794C862.896,724.78 874.01,723.76 889.148,722.734L889.148,719.937C889.148,718.798 888.122,717.956 886.07,717.412C884.018,716.868 880.38,716.595 875.156,716.595C872.224,716.595 869.812,716.724 867.92,716.98C866.028,717.237 865.082,717.559 865.082,717.947C865.082,718.097 865.188,718.222 865.401,718.322C865.615,718.423 865.935,718.529 866.361,718.642L867.32,718.904C868.067,719.117 868.666,719.352 869.119,719.608C869.573,719.865 869.799,720.137 869.799,720.425C869.799,721.151 868.773,721.711 866.721,722.105C864.669,722.499 862.283,722.696 859.565,722.696C856.42,722.696 853.741,722.477 851.529,722.039C849.317,721.601 848.211,720.969 848.211,720.143C848.211,718.667 851.169,717.496 857.086,716.633C863.003,715.769 870.279,715.338 878.914,715.338C888.189,715.338 895.945,715.757 902.181,716.595C908.365,717.446 911.456,719.011 911.456,721.288L911.456,730.599C911.456,730.875 911.763,731.109 912.376,731.303C912.989,731.497 913.668,731.594 914.415,731.594C915.054,731.594 915.627,731.566 916.134,731.51C916.64,731.454 917.426,731.3 918.492,731.05L920.971,731.857C917.773,732.733 914.228,733.346 910.337,733.697C907.885,733.922 905.3,734.035 902.581,734.035C897.73,734.035 894.186,733.703 891.947,733.04C890.668,732.664 889.735,732.108 889.148,731.369C884.618,732.433 879.5,733.184 873.797,733.622C870.332,733.897 866.921,734.035 863.563,734.035C859.085,734.035 854.901,733.7 851.009,733.03C847.118,732.361 845.173,731.319 845.173,729.905Z" style="fill:rgb(233,216,166);fill-rule:nonzero;"/>
        </g>
        <g transform="matrix(0.781122,0,0,0.781847,901.873,619.657)">
            <ellipse cx="626.027" cy="576.561" rx="3.698" ry="3.925" style="fill:rgb(238,155,0);"/>
        </g>
    </g>
</svg>
