<?xml version="1.0" encoding="UTF-8" standalone="no"?>
<!DOCTYPE svg PUBLIC "-//W3C//DTD SVG 1.1//EN" "http://www.w3.org/Graphics/SVG/1.1/DTD/svg11.dtd">
<svg width="100%" height="100%" viewBox="0 0 350 59" version="1.1" xmlns="http://www.w3.org/2000/svg" xmlns:xlink="http://www.w3.org/1999/xlink" xml:space="preserve" xmlns:serif="http://www.serif.com/" style="fill-rule:evenodd;clip-rule:evenodd;stroke-linejoin:round;stroke-miterlimit:2;">
    <g transform="matrix(0.508906,0,0,2.16757,-118.956,-1532.31)">
        <path d="M233.749,732.514C238.173,732.477 241.344,732.339 243.263,732.101C246.515,731.701 248.141,730.937 248.141,729.811L248.141,711.208C248.141,710.081 246.622,709.324 243.583,708.936C241.771,708.699 238.493,708.548 233.749,708.486L233.749,707.51L284.361,707.51C294.115,707.51 302.218,707.772 308.667,708.298C320.821,709.287 326.897,711.089 326.897,713.704C326.897,715.294 324.432,716.555 319.502,717.487C314.571,718.419 309.227,719.011 303.47,719.261L303.47,719.618C309.547,719.893 314.824,720.356 319.302,721.007C328.043,722.283 332.414,724.06 332.414,726.338C332.414,728.466 328.23,730.19 319.861,731.51C311.493,732.83 300.352,733.49 286.44,733.49L233.749,733.49L233.749,732.514ZM274.286,719.167C284.414,719.167 291.21,718.779 294.675,718.003C298.14,717.227 299.872,715.851 299.872,713.873C299.872,712.409 298.74,711.176 296.474,710.175C294.209,709.174 289.851,708.673 283.401,708.673C279.99,708.673 277.618,708.808 276.285,709.077C274.953,709.346 274.286,709.831 274.286,710.532L274.286,719.167ZM274.286,729.942C274.34,730.618 274.766,731.113 275.566,731.425C276.898,731.976 279.457,732.251 283.241,732.251C290.971,732.251 296.394,731.757 299.513,730.768C302.631,729.78 304.19,728.372 304.19,726.545C304.19,723.816 300.752,722.002 293.876,721.101C289.718,720.55 283.188,720.294 274.286,720.331L274.286,729.942Z" style="fill:rgb(233,216,166);fill-rule:nonzero;"/>
        <path d="M373.832,715.788L373.832,728.835C373.832,729.611 374.231,730.18 375.031,730.543C376.417,731.181 379.162,731.501 383.266,731.501C385.878,731.501 388.437,731.307 390.942,730.919C392.381,730.706 394.194,730.349 396.379,729.849L396.379,718.942C396.379,718.141 395.7,717.581 394.34,717.262C392.981,716.943 390.249,716.764 386.145,716.727L386.145,715.788L418.767,715.788L418.767,729.623C418.767,730.424 419.407,730.978 420.686,731.285C421.965,731.591 424.47,731.782 428.202,731.857L428.202,732.74C418.074,732.965 411.691,733.131 409.052,733.237C406.414,733.343 402.189,733.609 396.379,734.035L396.379,731.501C392.488,732.289 389.263,732.846 386.705,733.171C382.227,733.747 377.563,734.035 372.712,734.035C367.435,734.035 362.518,733.641 357.96,732.852C353.403,732.064 351.124,730.662 351.124,728.647L351.124,718.942C351.124,718.128 350.564,717.597 349.445,717.346C348.326,717.096 346.167,716.889 342.969,716.727L342.969,715.788L373.832,715.788Z" style="fill:rgb(233,216,166);fill-rule:nonzero;"/>
        <path d="M435.558,727.671L440.115,727.671C441.714,729.511 444.699,730.809 449.07,731.566C453.441,732.323 457.919,732.702 462.503,732.702C466.714,732.702 469.806,732.48 471.778,732.036C473.75,731.591 474.736,731.006 474.736,730.28C474.736,729.592 473.67,729.004 471.538,728.516C470.365,728.253 468.473,727.971 465.861,727.671L453.708,726.282C447.311,725.543 442.727,724.743 439.955,723.879C437.13,723.015 435.718,721.996 435.718,720.819C435.718,719.33 437.93,718.044 442.354,716.961C446.778,715.879 452.962,715.338 460.904,715.338C464.369,715.338 468.047,715.472 471.938,715.741C475.829,716.01 478.254,716.145 479.214,716.145C480.546,716.145 481.492,716.079 482.052,715.948C482.612,715.816 483.078,715.632 483.451,715.394L487.049,715.394L487.049,720.951L482.892,720.951C481.346,719.649 478.814,718.604 475.296,717.816C471.778,717.027 467.673,716.633 462.983,716.633C459.358,716.633 456.653,716.871 454.867,717.346C453.081,717.822 452.189,718.335 452.189,718.886C452.189,719.336 452.988,719.787 454.587,720.237C456.133,720.7 459.065,721.176 463.382,721.664L472.338,722.678C477.881,723.303 481.932,723.91 484.491,724.498C488.755,725.5 490.887,726.732 490.887,728.197C490.887,729.623 488.689,730.953 484.291,732.186C479.893,733.418 473.297,734.035 464.502,734.035C462.316,734.035 460.118,733.982 457.905,733.875C455.693,733.769 452.962,733.584 449.71,733.321L446.911,733.096C445.899,733.009 445.272,732.959 445.033,732.946C444.793,732.933 444.486,732.927 444.113,732.927C443.207,732.927 442.421,733.012 441.754,733.181C441.088,733.35 440.328,733.634 439.476,734.035L435.558,734.035L435.558,727.671Z" style="fill:rgb(233,216,166);fill-rule:nonzero;"/>
        <g transform="matrix(1.965,0,0,0.461347,-2179.89,446.092)">
            <path d="M1469.53,622.954L1469.53,620.961C1471.02,620.662 1472.04,620.255 1472.58,619.74C1473.12,619.225 1473.39,618.058 1473.39,616.241L1473.39,596.058C1473.39,594.159 1473.2,592.735 1472.82,591.786C1472.17,590.077 1470.88,589.222 1468.96,589.222C1467.52,589.222 1466.2,589.745 1464.99,590.789C1463.78,591.833 1462.86,592.884 1462.2,593.942L1462.2,616.241C1462.2,618.058 1462.48,619.225 1463.02,619.74C1463.56,620.255 1464.58,620.662 1466.07,620.961L1466.07,622.954L1422.86,622.954L1422.86,620.961C1424.32,620.716 1425.33,620.35 1425.87,619.862C1426.68,619.13 1427.09,617.814 1427.09,615.915L1427.09,592.42C1427.09,590.738 1426.77,589.618 1426.23,588.981C1425.11,587.653 1422.67,587.267 1419.6,587.5C1419.6,587.5 1417.53,587.376 1416.9,588.213C1416.44,588.829 1416.13,589.195 1415.53,590.769L1402.59,624.134L1400.68,624.134L1392.26,598.866L1391.89,598.866L1381.76,624.134L1379.73,624.134L1367.4,592.966C1366.37,590.389 1365.61,588.741 1365.12,588.022C1364.63,587.303 1363.82,586.835 1362.68,586.618L1362.68,584.584L1381.19,584.584L1381.19,586.618C1380.24,586.7 1379.47,586.896 1378.87,587.208C1378.27,587.52 1377.98,588.151 1377.98,589.1C1377.98,589.426 1378.02,589.738 1378.1,590.036C1378.18,590.335 1378.34,590.796 1378.59,591.42L1384.77,607.736L1385.22,607.736L1390.63,594.024C1390.63,593.834 1390.41,593.013 1389.98,591.562C1389.55,590.111 1389.18,589.1 1388.88,588.531C1388.45,587.771 1388.03,587.296 1387.64,587.106C1387.25,586.917 1386.44,586.754 1385.22,586.618L1385.22,584.584L1404.71,584.584L1404.71,586.618C1403.52,586.672 1402.56,586.822 1401.84,587.066C1401.12,587.31 1400.76,587.785 1400.76,588.49C1400.76,588.897 1400.81,589.365 1400.9,589.894C1401,590.423 1401.18,591.135 1401.45,592.03L1405.69,606.963L1406.17,606.963L1412.15,591.053C1412.24,590.782 1412.3,590.524 1412.36,590.28C1412.41,590.036 1412.44,589.806 1412.44,589.589C1412.44,588.422 1412.09,587.663 1411.4,587.31C1410.71,586.957 1409.7,586.727 1408.37,586.618L1408.37,584.584L1438.85,584.584L1438.85,615.241C1438.85,617.058 1439.12,618.225 1439.66,618.74C1440.2,619.255 1442.3,620.019 1444.01,619.961C1444.01,619.961 1448.66,619.347 1449.37,618.72C1450.09,618.082 1450.44,616.814 1450.44,614.915L1450.44,591.42C1450.44,589.738 1450.15,588.571 1449.57,587.92C1448.99,587.269 1447.8,586.835 1446.01,586.618L1446.01,584.584L1461.8,584.584L1461.8,590.565C1463.13,588.558 1464.82,586.896 1466.86,585.581C1468.91,584.265 1471.18,583.607 1473.68,583.607C1477.26,583.607 1480.03,584.529 1482,586.374C1483.97,588.219 1484.95,591.46 1484.95,596.099L1484.95,615.241C1484.95,617.112 1485.27,618.319 1485.91,618.862C1486.54,619.405 1488.71,620.01 1490.36,619.961C1490.36,619.961 1493.45,620.27 1495.47,618.557C1496.11,618.01 1496.38,616.76 1496.38,614.915L1496.38,573.475C1496.38,571.712 1496.1,570.559 1495.53,570.017C1494.96,569.474 1493.9,569.026 1492.36,568.674L1492.36,566.639L1507.98,566.639L1507.98,602.528L1518.56,591.908C1519.18,591.284 1519.63,590.694 1519.9,590.138C1520.17,589.582 1520.31,589.141 1520.31,588.815C1520.31,587.975 1519.94,587.418 1519.19,587.147C1518.44,586.876 1517.18,586.659 1515.39,586.496L1515.39,584.584L1533.25,584.584L1533.25,586.496C1531.54,586.713 1530.18,587.012 1529.18,587.391C1527.39,588.097 1525.65,589.29 1523.97,590.972L1517.5,597.523L1533.62,619.699C1533.94,620.16 1534.25,620.466 1534.55,620.615C1534.85,620.764 1535.24,620.879 1535.73,620.961L1535.73,622.954L1516.28,622.954L1516.28,620.961C1517.48,620.906 1518.35,620.757 1518.91,620.513C1519.46,620.269 1519.74,619.889 1519.74,619.374C1519.74,619.102 1519.62,618.729 1519.39,618.255C1519.16,617.78 1518.6,616.905 1517.7,615.63L1509.81,604.44L1507.98,606.475L1507.98,615.915C1507.98,617.787 1508.21,619.035 1508.67,619.659C1509.13,620.282 1510.31,620.716 1512.21,620.961L1512.21,622.954L1469.53,622.954ZM1426.52,571.848C1426.52,570.057 1427.15,568.531 1428.41,567.27C1429.67,566.009 1431.2,565.378 1432.99,565.378C1434.75,565.378 1436.26,566.009 1437.53,567.27C1438.79,568.531 1439.42,570.057 1439.42,571.848C1439.42,573.638 1438.79,575.164 1437.53,576.425C1436.26,577.687 1434.75,578.317 1432.99,578.317C1431.2,578.317 1429.67,577.687 1428.41,576.425C1427.15,575.164 1426.52,573.638 1426.52,571.848Z" style="fill:rgb(233,216,166);fill-rule:nonzero;"/>
        </g>
        <g transform="matrix(1.965,0,0,0.461347,-3499.75,383.985)">
            <path d="M2211.16,749.805C2211.16,746.061 2212.96,743.091 2216.57,740.894C2220.18,738.696 2225.83,736.485 2233.54,734.261L2233.54,728.198C2233.54,725.73 2233.01,723.905 2231.97,722.725C2230.93,721.545 2229.07,720.955 2226.42,720.955C2224.92,720.955 2223.7,721.233 2222.73,721.79C2221.77,722.346 2221.29,723.044 2221.29,723.885C2221.29,724.211 2221.34,724.482 2221.45,724.699C2221.56,724.916 2221.72,725.146 2221.94,725.391L2222.43,725.96C2222.81,726.421 2223.11,726.93 2223.34,727.486C2223.57,728.042 2223.69,728.632 2223.69,729.256C2223.69,730.83 2223.17,732.043 2222.12,732.898C2221.08,733.752 2219.87,734.18 2218.48,734.18C2216.88,734.18 2215.52,733.705 2214.39,732.756C2213.27,731.806 2212.7,730.436 2212.7,728.646C2212.7,725.445 2214.21,722.909 2217.22,721.037C2220.23,719.165 2223.93,718.229 2228.33,718.229C2233.05,718.229 2236.99,719.138 2240.17,720.955C2243.32,722.8 2244.89,726.191 2244.89,731.128L2244.89,751.31C2244.89,751.907 2245.05,752.416 2245.36,752.836C2245.67,753.257 2246.01,753.467 2246.39,753.467C2246.72,753.467 2247.01,753.406 2247.27,753.284C2247.53,753.162 2247.93,752.829 2248.47,752.287L2249.73,754.036C2248.1,755.935 2246.3,757.265 2244.32,758.024C2243.07,758.512 2241.76,758.757 2240.37,758.757C2237.9,758.757 2236.1,758.038 2234.96,756.6C2234.31,755.786 2233.84,754.579 2233.54,752.979C2231.23,755.284 2228.63,756.912 2225.72,757.861C2223.96,758.458 2222.22,758.757 2220.52,758.757C2218.24,758.757 2216.11,758.031 2214.13,756.58C2212.15,755.128 2211.16,752.87 2211.16,749.805ZM2227.31,752.816C2228.67,752.816 2229.93,752.409 2231.1,751.595C2231.75,751.107 2232.52,750.347 2233.41,749.316L2233.41,737.15C2231.19,737.693 2229.24,738.547 2227.55,739.714C2224.71,741.694 2223.28,744.217 2223.28,747.282C2223.28,749.099 2223.7,750.476 2224.52,751.412C2225.35,752.348 2226.28,752.816 2227.31,752.816ZM2218.24,725.928C2217.84,725.928 2217.47,726.012 2217.11,726.174C2214.79,727.233 2214.79,730.874 2217.11,731.933C2217.47,732.095 2217.84,732.178 2218.24,732.178C2218.63,732.178 2219,732.095 2219.36,731.933C2221.68,730.874 2221.68,727.233 2219.36,726.174C2219,726.012 2218.63,725.928 2218.24,725.928Z" style="fill:rgb(233,216,166);fill-rule:nonzero;"/>
        </g>
    </g>
</svg>
