<?xml version="1.0" encoding="UTF-8" standalone="no"?>
<!DOCTYPE svg PUBLIC "-//W3C//DTD SVG 1.1//EN" "http://www.w3.org/Graphics/SVG/1.1/DTD/svg11.dtd">
<svg width="100%" height="100%" viewBox="0 0 251 98" version="1.1" xmlns="http://www.w3.org/2000/svg" xmlns:xlink="http://www.w3.org/1999/xlink" xml:space="preserve" xmlns:serif="http://www.serif.com/" style="fill-rule:evenodd;clip-rule:evenodd;">
    <g transform="matrix(0.371551,0,0,0.349212,-87.6942,11.1563)">
        <g id="path2848" transform="matrix(1.08998,0,0,1.39262,147.909,-303.029)">
            <path d="M689.244,384.585C552.465,374.021 489.225,325.663 390.004,325.663C290.782,325.663 227.543,374.021 90.764,384.585" style="fill:none;stroke:rgb(0,18,25);stroke-width:4.02px;"/>
        </g>
        <g id="path2842" transform="matrix(1.08998,0,0,1.07769,147.909,-183.401)">
            <path d="M690.006,390C572.43,390 580.212,389.027 565.956,388.051C510.678,384.268 485.591,352.107 463.63,321.979C435.785,283.778 415.05,246.053 390.004,246.053C364.958,246.053 344.222,283.778 316.377,321.979C294.417,352.107 269.329,384.268 214.052,388.051C199.796,389.027 207.578,390 90.002,390" style="fill:none;stroke:rgb(10,147,150);stroke-width:4.6px;"/>
        </g>
        <g id="path2846" transform="matrix(1.08998,0,0,0.802891,147.909,-76.2289)">
            <path d="M690.006,390.526L500.232,390.419C478.087,390.406 468.589,387.28 463.78,383.161C441.115,363.746 435.596,314.383 424.032,243.959C409.463,155.237 402.342,68.388 390.004,68.388C377.665,68.388 370.544,155.237 355.975,243.959C344.411,314.383 338.892,363.746 316.228,383.161C311.419,387.28 301.921,390.406 279.776,390.419L90.002,390.526" style="fill:none;stroke:rgb(148,210,189);stroke-width:5.17px;"/>
        </g>
    </g>
</svg>
